<svg xmlns="http://www.w3.org/2000/svg" width="80" height="57" viewBox="0 0 80 57">
    <g fill="none" fill-rule="evenodd">
        <g>
            <g>
                <path fill="#132968" d="M34.081 39.925L39.913 39.925 39.913 0 34.081 0z" transform="translate(-155 -63) translate(155 63)"/>
                <g>
                    <path fill="#132968" d="M65.43 21.54c1.766-1.766 2.649-3.896 2.649-6.391 0-2.479-.883-4.605-2.649-6.38-1.766-1.773-3.888-2.66-6.366-2.66-2.511 0-4.646.887-6.403 2.66-1.758 1.775-2.637 3.901-2.637 6.38 0 2.495.879 4.625 2.637 6.39 1.757 1.766 3.892 2.65 6.403 2.65 2.478 0 4.6-.884 6.366-2.65m4.131-16.9c2.916 2.908 4.375 6.41 4.375 10.51 0 4.115-1.459 7.622-4.375 10.522-2.915 2.9-6.415 4.35-10.497 4.35-4.115 0-7.623-1.45-10.522-4.35-2.9-2.9-4.35-6.407-4.35-10.522 0-4.1 1.45-7.602 4.35-10.51C51.442 1.73 54.949.277 59.064.277c4.082 0 7.582 1.454 10.497 4.362" transform="translate(-155 -63) translate(155 63) translate(0 9.905)"/>
                    <path fill="#00B486" d="M21.25 21.54c-1.765 1.765-3.887 2.648-6.366 2.648-2.51 0-4.645-.883-6.403-2.648-1.758-1.766-2.637-3.896-2.637-6.391 0-2.479.88-4.605 2.637-6.38 1.758-1.773 3.892-2.66 6.403-2.66 2.479 0 4.601.887 6.367 2.66 1.766 1.775 2.648 3.901 2.648 6.38 0 2.495-.882 4.625-2.648 6.39m8.355-8.6h.063V.52h-5.794v2.79C21.283 1.29 18.287.278 14.885.278 10.77.277 7.261 1.731 4.361 4.64c-2.9 2.908-4.35 6.41-4.35 10.51 0 4.115 1.45 7.622 4.35 10.522 2.9 2.9 6.408 4.35 10.522 4.35 4.082 0 7.582-1.45 10.498-4.35 2.916-2.9 4.374-6.407 4.374-10.522 0-.758-.05-1.494-.15-2.21" transform="translate(-155 -63) translate(155 63) translate(0 9.905)"/>
                    <path fill="#00BDE1" d="M21.238 38.358c-1.766 1.767-3.888 2.65-6.366 2.65-2.511 0-4.646-.883-6.403-2.65-1.758-1.765-2.637-3.896-2.637-6.39H0c0 4.114 1.45 7.622 4.35 10.522 2.9 2.9 6.407 4.35 10.522 4.35 4.082 0 7.582-1.45 10.497-4.35 2.916-2.9 4.375-6.408 4.375-10.522h-5.857c0 2.494-.883 4.625-2.649 6.39" transform="translate(-155 -63) translate(155 63) translate(0 9.905)"/>
                    <path fill="#132968" d="M79.696 27.069c0 1.59-1.29 2.88-2.88 2.88-1.591 0-2.88-1.29-2.88-2.88 0-1.591 1.289-2.88 2.88-2.88 1.59 0 2.88 1.289 2.88 2.88" transform="translate(-155 -63) translate(155 63) translate(0 9.905)"/>
                </g>
            </g>
        </g>
    </g>
</svg>
